<?xml version="1.0" encoding="UTF-8"?>
<svg xmlns="http://www.w3.org/2000/svg" viewBox="222 66 384 434">
      <defs>
        <mask id="strid-cut" maskUnits="userSpaceOnUse" x="222" y="66" width="384" height="434">
          <rect x="222" y="66" width="384" height="434" fill="#fff"/>
          <g transform="translate(231.874,-130.394)" fill="#000" stroke="#000" stroke-width="2">
            <g><path transform="translate(603.44,473.898) rotate(105.609)" d="M0 595.28 L128.1 467.18 L107.16 467.18 L0 574.33 L0 595.28 Z"/></g>
            <g transform="translate(449.652,49.897) rotate(60.1)"><path transform="translate(603.44,473.898) rotate(105.609)" d="M0 595.28 L128.28 466.99 L107.31 466.99 L0 574.3 L0 595.28 Z"/></g>
            <g transform="translate(630.717,463.005) rotate(120)"><path transform="translate(603.44,473.898) rotate(105.609)" d="M0 595.28 L127.64 467.63 L106.77 467.63 L0 574.41 L0 595.28 Z"/></g>
            <g transform="translate(365.565,826.193) rotate(179.7)"><path transform="translate(603.44,473.898) rotate(105.609)" d="M0 595.28 L126.6 468.68 L105.9 468.68 L0 574.58 L0 595.28 Z"/></g>
            <g transform="translate(-84.9791,778.186) rotate(-120.1)"><path transform="translate(603.44,473.898) rotate(105.609)" d="M0 595.28 L128.08 467.2 L107.14 467.2 L0 574.34 L0 595.28 Z"/></g>
            <g transform="translate(-267.486,365.713) rotate(-60.2)"><path transform="translate(603.44,473.898) rotate(105.609)" d="M0 595.28 L129.27 466 L108.14 466 L0 574.14 L0 595.28 Z"/></g>
          </g>
        </mask>
      </defs>
      <g mask="url(#strid-cut)"><g transform="translate(231.874,-130.394)">
        <g fill="#b732ac" stroke="#b732ac" stroke-width="0.25">
          <path transform="translate(9.35432,-124.256)" d="M0 595.28 L108.85 595.28 L20.63 437.99 Z"/>
          <path transform="translate(363.402,827.15) rotate(180)" d="M318.01 503.16 L333.54 513.37 A181.701 181.701 -180 0 0 354.16 356.36 L336.51 362.21 A163.109 163.109 0 0 1 318.01 503.16 Z"/>
        </g>
        <g fill="#67bde5" stroke="#67bde5" stroke-width="0.25" transform="translate(449.652,49.897) rotate(60.1)">
          <path transform="translate(9.21649,-124.257)" d="M0 595.28 L108.85 595.28 L20.63 437.99 Z"/>
          <path transform="translate(363.402,827.15) rotate(180)" d="M318.01 503.16 L333.54 513.37 A181.701 181.701 -180 0 0 354.16 356.36 L336.51 362.21 A163.109 163.109 0 0 1 318.01 503.16 Z"/>
        </g>
        <g fill="#d37337" stroke="#d37337" stroke-width="0.25" transform="translate(630.717,463.005) rotate(120)">
          <path transform="translate(9.39314,-124.115)" d="M0 595.28 L108.85 595.28 L20.63 437.99 Z"/>
          <path transform="translate(363.402,827.15) rotate(180)" d="M318.01 503.16 L333.54 513.37 A181.701 181.701 -180 0 0 354.16 356.36 L336.51 362.21 A163.109 163.109 0 0 1 318.01 503.16 Z"/>
        </g>
        <g fill="#9fbb3d" stroke="#9fbb3d" stroke-width="0.25" transform="translate(365.565,826.193) rotate(179.7)">
          <path transform="translate(9.34106,-124.265)" d="M0 595.28 L108.85 595.28 L20.62 437.99 Z"/>
          <path transform="translate(363.402,827.15) rotate(180)" d="M318.01 503.16 L333.54 513.37 A181.701 181.701 -180 0 0 354.16 356.36 L336.51 362.21 A163.109 163.109 0 0 1 318.01 503.16 Z"/>
        </g>
        <g fill="#459a4f" stroke="#459a4f" stroke-width="0.25" transform="translate(-84.9791,778.186) rotate(-120.1)">
          <path transform="translate(9.35409,-124.421)" d="M0 595.28 L108.85 595.28 L20.63 437.99 Z"/>
          <path transform="translate(363.402,827.15) rotate(180)" d="M318.01 503.16 L333.54 513.37 A181.701 181.701 -180 0 0 354.16 356.36 L336.51 362.21 A163.109 163.109 0 0 1 318.01 503.16 Z"/>
        </g>
        <g fill="#817870" stroke="#817870" stroke-width="0.25" transform="translate(-267.486,365.713) rotate(-60.2)">
          <path transform="translate(9.27977,-124.051)" d="M0 595.28 L108.85 595.28 L20.63 437.99 Z"/>
          <path transform="translate(363.402,827.15) rotate(180)" d="M318.01 503.16 L333.54 513.37 A181.701 181.701 -180 0 0 354.16 356.36 L336.51 362.21 A163.109 163.109 0 0 1 318.01 503.16 Z"/>
        </g>
      </g></g>
    </svg>
